# xmcd
#
# Track frame offsets: 
#        150
#        30497
#        61902
#        92197
#        126032
#        147057
#        223295
#
# Disc length: 3412 seconds
#
# Revision: 0
# Processed by: cddbd v1.5.1PL0 Copyright (c) Steve Scherf et al.
# Submitted via: ExactAudioCopy v0.95a5
#
DISCID=610d5207
DTITLE=Hot Tuna - 1978 09-08 Loew's Theater Syracuse, NY
DYEAR=1978
DGENRE=Blues
TTITLE0=Keep Your Lamps Trimmed And Burning
TTITLE1=Hit Single #1
TTITLE2=Bowlegged Woman, Knock Kneed Man
TTITLE3=Easy Now
TTITLE4=Song From The Stainless Cymbal
TTITLE5=Invitation
TTITLE6=Serpent Of Dreams
EXTD=
EXTT0=
EXTT1=
EXTT2=
EXTT3=
EXTT4=
EXTT5=
EXTT6=
PLAYORDER=
